<svg width="196" height="218" viewBox="0 0 196 218" fill="none" xmlns="http://www.w3.org/2000/svg">
<path d="M188.399 0H24.514C20.371 0 17.014 3.358 17.014 7.5V50.749H7.59802C3.45502 50.749 0.0980225 54.107 0.0980225 58.249C0.0980225 62.391 3.45502 65.749 7.59802 65.749H17.014V101.499H7.59802C3.45502 101.499 0.0980225 104.857 0.0980225 108.999C0.0980225 113.141 3.45502 116.499 7.59802 116.499H17.014V152.248H7.59802C3.45502 152.248 0.0980225 155.606 0.0980225 159.748C0.0980225 163.89 3.45502 167.248 7.59802 167.248H17.014V210.497C17.014 214.639 20.371 217.997 24.514 217.997H188.4C192.543 217.997 195.9 214.639 195.9 210.497V7.5C195.899 3.358 192.542 0 188.399 0ZM180.899 202.997H32.014V167.248H41.43C45.573 167.248 48.93 163.89 48.93 159.748C48.93 155.606 45.573 152.248 41.43 152.248H32.014V116.499H41.43C45.573 116.499 48.93 113.141 48.93 108.999C48.93 104.857 45.573 101.499 41.43 101.499H32.014V65.749H41.43C45.573 65.749 48.93 62.391 48.93 58.249C48.93 54.107 45.573 50.749 41.43 50.749H32.014V15H180.9V202.997H180.899Z" fill="#6E8898"/>
<path d="M111.822 112.447C128.826 112.447 142.66 98.608 142.66 81.598C142.66 64.587 128.826 50.748 111.822 50.748C94.8131 50.748 80.9751 64.587 80.9751 81.598C80.9751 98.608 94.8131 112.447 111.822 112.447ZM111.822 65.749C120.555 65.749 127.66 72.859 127.66 81.599C127.66 90.338 120.556 97.448 111.822 97.448C103.084 97.448 95.9751 90.338 95.9751 81.599C95.9751 72.859 103.084 65.749 111.822 65.749Z" fill="#6E8898"/>
<path d="M77.4841 168.54C81.6271 168.54 84.9841 165.182 84.9841 161.04V148.079C84.9841 139.76 91.7541 132.991 100.074 132.991H123.756C132.076 132.991 138.846 139.759 138.846 148.079V161.04C138.846 165.182 142.203 168.54 146.346 168.54C150.488 168.54 153.846 165.182 153.846 161.04V148.079C153.846 131.489 140.348 117.991 123.756 117.991H100.074C83.4821 117.991 69.9841 131.488 69.9841 148.079V161.04C69.9841 165.182 73.3421 168.54 77.4841 168.54Z" fill="#6E8898"/>
</svg>
