<svg width="218" height="218" viewBox="0 0 218 218" fill="none" xmlns="http://www.w3.org/2000/svg">
<g clip-path="url(#clip0)">
<path d="M199.399 0H35.514C31.371 0 28.014 3.358 28.014 7.5V50.749H18.598C14.455 50.749 11.098 54.107 11.098 58.249C11.098 62.391 14.455 65.749 18.598 65.749H28.014V101.499H18.598C14.455 101.499 11.098 104.857 11.098 108.999C11.098 113.141 14.455 116.499 18.598 116.499H28.014V152.248H18.598C14.455 152.248 11.098 155.606 11.098 159.748C11.098 163.89 14.455 167.248 18.598 167.248H28.014V210.497C28.014 214.639 31.371 217.997 35.514 217.997H199.4C203.543 217.997 206.9 214.639 206.9 210.497V7.5C206.899 3.358 203.542 0 199.399 0ZM191.899 202.997H43.014V167.248H52.43C56.573 167.248 59.93 163.89 59.93 159.748C59.93 155.606 56.573 152.248 52.43 152.248H43.014V116.499H52.43C56.573 116.499 59.93 113.141 59.93 108.999C59.93 104.857 56.573 101.499 52.43 101.499H43.014V65.749H52.43C56.573 65.749 59.93 62.391 59.93 58.249C59.93 54.107 56.573 50.749 52.43 50.749H43.014V15H191.9V202.997H191.899Z" fill="#06CC70"/>
<path d="M122.822 112.447C139.826 112.447 153.66 98.608 153.66 81.598C153.66 64.587 139.826 50.748 122.822 50.748C105.813 50.748 91.9751 64.587 91.9751 81.598C91.9751 98.608 105.813 112.447 122.822 112.447ZM122.822 65.749C131.555 65.749 138.66 72.859 138.66 81.599C138.66 90.338 131.556 97.448 122.822 97.448C114.084 97.448 106.975 90.338 106.975 81.599C106.975 72.859 114.084 65.749 122.822 65.749Z" fill="#06CC70"/>
<path d="M88.4841 168.54C92.6271 168.54 95.9841 165.182 95.9841 161.04V148.079C95.9841 139.76 102.754 132.991 111.074 132.991H134.756C143.076 132.991 149.846 139.759 149.846 148.079V161.04C149.846 165.182 153.203 168.54 157.346 168.54C161.488 168.54 164.846 165.182 164.846 161.04V148.079C164.846 131.489 151.348 117.991 134.756 117.991H111.074C94.4821 117.991 80.9841 131.488 80.9841 148.079V161.04C80.9841 165.182 84.3421 168.54 88.4841 168.54Z" fill="#06CC70"/>
</g>
<defs>
<clipPath id="clip0">
<rect width="217.997" height="217.997" fill="white"/>
</clipPath>
</defs>
</svg>
